<svg width="800" height="600" xmlns="http://www.w3.org/2000/svg" style="">

 <g>
  <title>Layer 1</title>
  <path stroke-linecap="round" id="svg_12" stroke="#04b2f2" fill="none" d="M-71,394.5L-71,394.5" class="jmEBxdhi_0"></path>
  <g stroke="null" id="svg_13">
   <path stroke="#FFDE00" fill-opacity="0" stroke-width="3" id="svg_2" fill="#0fffff" d="M7.999949999999998,340.22048A36.05643,58.72048 0,1,1 80.11281,340.22048A36.05643,58.72048 0,1,1 7.999949999999998,340.22048" class="jmEBxdhi_1"></path>
   <path stroke="#FFDE00" stroke-width="3" id="svg_3" d="m40.96583,281.5l148.34647,18.54331" opacity="undefined" stroke-linecap="undefined" stroke-linejoin="undefined" fill="none" class="jmEBxdhi_2"></path>
   <path stroke="#FFDE00" stroke-width="3" stroke-linecap="undefined" stroke-linejoin="undefined" id="svg_4" fill="none" d="M40.96583,396.88058L189.3123,415.42389" class="jmEBxdhi_3"></path>
   <path stroke="#FFDE00" stroke-width="3" fill-opacity="0" id="svg_5" fill="#FFDE00" d="M148.10495,356.70342A36.05643,58.72048 0,1,1 220.21781000000001,356.70342A36.05643,58.72048 0,1,1 148.10495,356.70342" class="jmEBxdhi_4"></path>
   <path stroke="#04b2f2" stroke-width="3" d="m123.38054,386.57875c2.06037,0 2.06037,0 4.12074,0c2.06037,0 22.84419,1.63582 32.96588,6.1811c4.20279,1.88733 9.93869,3.06226 14.42257,4.12074c4.01051,0.94675 6.1811,0 8.24147,0c10.30184,0 16.48294,0 22.66404,0c10.30184,0 16.48294,0 22.66404,-2.06037c6.1811,-2.06037 14.58417,-3.68776 20.60368,-6.1811c4.25642,-1.76308 10.73796,-3.5317 16.48294,-8.24147c4.50674,-3.69461 10.18526,-8.54586 20.60368,-12.36221c6.11791,-2.24101 12.162,-4.5827 16.48294,-6.1811c7.96745,-2.94732 14.17238,-3.0771 20.60368,-4.12074c8.13508,-1.32011 14.42257,0 24.72441,0c6.1811,0 10.46721,-1.42015 16.48294,0c4.48385,1.05848 10.68508,1.42688 14.42257,4.12074c4.72757,3.40745 8.4545,5.98813 10.30184,8.24147c4.70977,5.74498 4.60414,8.55517 6.1811,12.36221c1.11507,2.69197 2.06037,6.1811 2.06037,8.24147c0,4.12074 -1.42688,6.56434 -4.12074,10.30184c-1.70373,2.36381 -3.75762,5.12262 -8.24147,6.1811c-4.01051,0.94675 -6.1811,2.06037 -10.30184,2.06037c-2.06037,0 -4.43443,1.57697 -8.24147,0c-2.69197,-1.11507 -4.12074,-4.12074 -4.12074,-6.1811c0,-4.12074 -0.94675,-6.29133 0,-10.30184c1.05848,-4.48385 7.99738,-6.57314 14.42257,-10.30184c3.98473,-2.31244 12.17219,-3.08275 20.60368,-4.12074c2.0449,-0.25176 16.48294,-2.06037 22.66404,-2.06037c6.1811,0 10.30184,0 14.42257,2.06037c4.12074,2.06037 9.24468,4.28661 14.42257,8.24147c5.90369,4.50919 12.44432,10.14521 16.48294,12.36221c10.53147,5.7812 15.99067,9.09836 22.66404,12.36221c5.85295,2.86256 12.11202,5.13746 18.54331,6.1811c6.10131,0.99013 12.36221,0 22.66404,0c6.1811,0 12.36221,-2.06037 18.54331,-4.12074c6.1811,-2.06037 12.22652,-4.41802 16.48294,-6.1811c6.01951,-2.49334 11.01512,-3.51391 14.42257,-8.24147c2.69386,-3.7375 7.1264,-5.5495 8.24147,-8.24147c0.78848,-1.90355 2.06037,-4.12074 2.06037,-6.1811c0,-2.06037 0,-4.12074 0,-6.1811c0,-2.06037 0,-4.12074 -2.06037,-6.1811c-2.06037,-2.06037 -4.12074,-2.06037 -4.12074,-2.06037c-2.06037,0 -2.06037,0 -4.12074,0c-2.06037,0 -4.12074,2.06037 -4.12074,4.12074c0,2.06037 -2.06037,6.1811 -2.06037,8.24147c0,2.06037 -0.4734,4.17588 0,6.1811c1.05848,4.48385 3.70247,6.70959 6.1811,8.24147c5.54239,3.42537 9.93872,3.06226 14.42257,4.12074c4.01051,0.94675 10.30184,0 16.48294,0c6.1811,0 12.44734,0.31476 20.60368,-2.06037c6.25561,-1.82162 12.27663,-3.08898 30.90551,-4.12074c12.34328,-0.6836 24.72441,0 43.26772,0c16.48294,0 32.96588,2.06037 47.38845,4.12074l12.36221,0l14.42257,2.06037l14.42257,2.06037" id="svg_11" fill="none" class="jmEBxdhi_5"></path>
  </g>
 </g>
<style data-made-with="vivus-instant">.jmEBxdhi_0{stroke-dasharray:0 2;stroke-dashoffset:1;animation:jmEBxdhi_draw 3000ms ease-in-out 0ms forwards;}.jmEBxdhi_1{stroke-dasharray:303 305;stroke-dashoffset:304;animation:jmEBxdhi_draw 3000ms ease-in-out 300ms forwards;}.jmEBxdhi_2{stroke-dasharray:150 152;stroke-dashoffset:151;animation:jmEBxdhi_draw 3000ms ease-in-out 600ms forwards;}.jmEBxdhi_3{stroke-dasharray:150 152;stroke-dashoffset:151;animation:jmEBxdhi_draw 3000ms ease-in-out 900ms forwards;}.jmEBxdhi_4{stroke-dasharray:303 305;stroke-dashoffset:304;animation:jmEBxdhi_draw 3000ms ease-in-out 1200ms forwards;}.jmEBxdhi_5{stroke-dasharray:885 887;stroke-dashoffset:886;animation:jmEBxdhi_draw 3000ms ease-in-out 1500ms forwards;}@keyframes jmEBxdhi_draw{100%{stroke-dashoffset:0;}}@keyframes jmEBxdhi_fade{0%{stroke-opacity:1;}90.21739130434783%{stroke-opacity:1;}100%{stroke-opacity:0;}}</style></svg>