<!--?xml version="1.0" encoding="utf-8"?-->
<!-- Generator: Adobe Illustrator 26.2.1, SVG Export Plug-In . SVG Version: 6.00 Build 0)  -->
<svg version="1.1" id="Layer_1" xmlns="http://www.w3.org/2000/svg" xmlns:xlink="http://www.w3.org/1999/xlink" x="0px" y="0px" viewBox="0 0 900 900" style="" xml:space="preserve">
<style type="text/css">
	.st0{display:none;}
	.st1{fill:#FDE900;stroke:#000000;stroke-width:0.25;stroke-miterlimit:10;}
</style>
<g id="Layer_1_00000105408868300888725540000006674490359520558995_" class="st0">
	
		<image style="display:inline;overflow:visible;enable-background:new    ;" width="2264" height="1142" xlink:href="643A03D56DE14567.png" transform="matrix(0.4991 0 0 0.4991 -97.5644 139.5152)">
	</image>
</g>
<g id="Layer_2_00000045617767738702727510000013840731510120915593_">
	<g>
		<g>
			<path class="st1 YBBlGXWz_0" d="M361.4,580.4c14-11.5,25.5-25.9,33.3-42.3c0.5-1.1-1.1-2-1.6-0.9c-7.7,16.3-19.1,30.5-33,42
				C359.2,579.8,360.5,581.1,361.4,580.4L361.4,580.4z"></path>
		</g>
	</g>
	<g>
		<g>
			<path class="st1 YBBlGXWz_1" d="M217.7,598.5c18.2,7.5,37.8,11.4,57.5,11.5c19.3,0.1,38.6-3.6,56.2-11.2c10.1-4.3,19.5-10,28-16.8
				c0.9-0.7-0.4-2-1.3-1.3c-15,11.9-32.7,20-51.3,24.2c-18.9,4.2-38.6,4.4-57.6,1c-10.7-1.9-21.1-5-31.1-9.1
				C217.1,596.3,216.6,598.1,217.7,598.5L217.7,598.5z"></path>
		</g>
	</g>
	<g>
		<g>
			<path class="st1 YBBlGXWz_2" d="M139,506.6c9.6,26.4,23.3,52.1,44.5,70.9c6.1,5.4,12.7,10.2,19.8,14.2c1,0.6,2-1,0.9-1.6
				c-24.6-14-42.2-36.9-54.3-62.1c-3.4-7.1-6.4-14.5-9.2-22C140.4,505,138.6,505.5,139,506.6L139,506.6z"></path>
		</g>
	</g>
	<g>
		<g>
			<path class="st1 YBBlGXWz_3" d="M134.4,451.4c-2,13.2-1.7,26.6,0.7,39.7c0.2,1.2,2,0.7,1.8-0.5c-2.4-12.8-2.7-25.9-0.7-38.7
				C136.3,450.7,134.5,450.2,134.4,451.4L134.4,451.4z"></path>
		</g>
	</g>
	<g>
		<g>
			<path class="st1 YBBlGXWz_4" d="M148.2,407c-5.5,11.9-9.9,24.2-12.6,37c-0.2,1.1,1.5,1.7,1.8,0.5c2.7-12.7,6.9-24.9,12.4-36.6
				C150.3,406.9,148.7,406,148.2,407L148.2,407z"></path>
		</g>
	</g>
	<g>
		<g>
			<path class="st1 YBBlGXWz_5" d="M187.9,356.6c-14.3,8.2-23.9,22.1-32.1,36c-0.6,1,1,1.9,1.6,0.9c8-13.6,17.4-27.3,31.4-35.4
				C189.8,357.6,188.9,356,187.9,356.6L187.9,356.6z"></path>
		</g>
	</g>
	<g>
		<g>
			<path class="st1 YBBlGXWz_6" d="M189,355.1c-1.7,1.1-3.4,2.2-5.1,3.4c-0.4,0.3-0.6,0.8-0.3,1.3c0.3,0.4,0.8,0.6,1.3,0.3
				c1.7-1.1,3.4-2.2,5.1-3.4c0.4-0.3,0.6-0.8,0.3-1.3C190,355,189.5,354.8,189,355.1L189,355.1z"></path>
		</g>
	</g>
	<g>
		<g>
			<path class="st1 YBBlGXWz_7" d="M235.7,331.5c-14.9,4.6-30,9.6-41.7,20.4c-0.9,0.8,0.4,2.1,1.3,1.3c11.5-10.5,26.3-15.4,40.9-19.9
				C237.3,332.9,236.8,331.1,235.7,331.5L235.7,331.5z"></path>
		</g>
	</g>
	<g>
		<g>
			<path class="st1 YBBlGXWz_8" d="M300.5,328.9c-18.1-4.2-37-4.5-55.2-0.1c-1.1,0.3-0.7,2.1,0.5,1.8c17.8-4.3,36.4-4,54.2,0.1
				C301.2,330.9,301.7,329.2,300.5,328.9L300.5,328.9z"></path>
		</g>
	</g>
	<g>
		<g>
			<path class="st1 YBBlGXWz_9" d="M339.6,343.5c-11.6-6.7-24.2-11.6-37.4-14.1c-1.2-0.2-1.7,1.5-0.5,1.8c13,2.5,25.4,7.4,36.9,14
				C339.8,345.6,340.7,344.1,339.6,343.5L339.6,343.5z"></path>
		</g>
	</g>
	<g>
		<g>
			<path class="st1 YBBlGXWz_10" d="M382.9,379c-5.6-6.2-11.6-12.1-17.9-17.7c-6.2-5.4-13.2-9.7-19.8-14.5c-1-0.7-1.9,0.9-0.9,1.6
				c6.7,4.8,13.8,9.2,20,14.6c6.1,5.4,12,11.1,17.4,17.2C382.4,381.1,383.7,379.8,382.9,379L382.9,379z"></path>
		</g>
	</g>
	<g>
		<g>
			<path class="st1 YBBlGXWz_11" d="M408.5,516.8c8.5-17,8-35.8,6.1-54.2c-0.5-4.7-1-9.5-1.5-14.2c-0.4-4.5-0.6-9.1-0.9-13.6
				c-0.6-8.5-3.1-16.7-6.7-24.3c-4.3-8.8-10.1-16.9-16.4-24.3c-0.8-0.9-2.1,0.4-1.3,1.3c11.1,12.8,20.8,28.2,22.5,45.4
				c0.4,4.2,0.4,8.5,0.8,12.7c0.4,4.4,0.9,8.8,1.3,13.2c0.9,8.9,1.8,17.9,1.6,26.8c-0.3,10.4-2.4,20.7-7.1,30
				C406.4,516.9,408,517.9,408.5,516.8L408.5,516.8z"></path>
		</g>
	</g>
	<g>
		<g>
			<path class="st1 YBBlGXWz_12" d="M243.2,331.6c1.2,0,1.2-1.8,0-1.8S242,331.6,243.2,331.6L243.2,331.6z"></path>
		</g>
	</g>
	<g>
		<g>
			<path class="st1 YBBlGXWz_13" d="M277.9,501.6c4.3,13.3,8.1,26.8,11.2,40.5c1.6,7,2.8,14.1,4.6,21c1.8,6.8,4,13.4,6.1,20.1
				c2.4,7.7,4.8,15.4,7.2,23c1.4,4.5,8.5,2.6,7.1-2c-4.2-13.5-8.8-26.8-12.6-40.4c-1.9-6.9-3.2-14-4.7-21c-1.5-6.8-3.2-13.6-5-20.4
				c-2.1-7.7-4.4-15.3-6.8-22.9C283.5,495.1,276.4,497,277.9,501.6L277.9,501.6z"></path>
		</g>
	</g>
	<g>
		<g>
			<path class="st1 YBBlGXWz_14" d="M268,499.5c-4.4,28-8.8,56-13.2,83.9c-1.2,7.9-2.5,15.8-3.7,23.7c-0.3,2,0.5,4,2.6,4.5
				c1.8,0.5,4.2-0.6,4.5-2.6c4.4-27.9,8.8-55.9,13.2-83.8c1.3-7.9,2.5-15.9,3.7-23.8c0.3-2-0.5-4-2.6-4.5
				C270.8,496.5,268.3,497.6,268,499.5L268,499.5z"></path>
		</g>
	</g>
	<g>
		<g>
			<path class="st1 YBBlGXWz_15" d="M109.9,503.4c4.8,23.1,16.2,44.3,29.8,63.3c3.9,5.5,8,10.8,12.2,16c1.3,1.5,3.9,1.3,5.2,0
				c1.5-1.5,1.3-3.7,0-5.2c-14-17.4-26.9-36.3-34.7-57.3c-2.3-6.1-4.1-12.4-5.4-18.8c-0.4-1.9-2.7-3.1-4.5-2.6
				C110.5,499.4,109.5,501.4,109.9,503.4L109.9,503.4z"></path>
		</g>
	</g>
	<g>
		<g>
			<path class="st1 YBBlGXWz_16" d="M167.1,340.1c-18,9.9-30.2,27.8-39.7,45.4c-11.1,20.5-18.6,42.6-21,65.8c-1.4,14.1-0.8,28.4,1.5,42.4
				c0.3,2,2.8,3.1,4.5,2.6c2.1-0.6,2.9-2.6,2.6-4.5c-3.8-23-2.2-46.5,4.5-68.8c3.2-10.6,7.4-20.7,12.5-30.5
				c4.5-8.5,9.4-16.9,15.2-24.6c6.4-8.5,14.2-16.2,23.6-21.4C175,344.1,171.3,337.8,167.1,340.1L167.1,340.1z"></path>
		</g>
	</g>
	<g>
		<g>
			<path class="st1 YBBlGXWz_17" d="M170.9,348.8c0.9,0,1.8,0,2.7,0c0.5,0,1-0.1,1.4-0.3c0.5-0.1,0.9-0.4,1.2-0.8c0.4-0.3,0.6-0.7,0.8-1.2
				c0.2-0.4,0.3-0.9,0.3-1.4c0-0.3-0.1-0.6-0.1-1c-0.2-0.6-0.5-1.2-0.9-1.6c-0.3-0.2-0.5-0.4-0.8-0.6c-0.6-0.3-1.2-0.5-1.9-0.5
				c-0.9,0-1.8,0-2.7,0c-0.5,0-1,0.1-1.4,0.3c-0.5,0.1-0.9,0.4-1.2,0.8c-0.4,0.3-0.6,0.7-0.8,1.2c-0.2,0.4-0.3,0.9-0.3,1.4
				c0,0.3,0.1,0.6,0.1,1c0.2,0.6,0.5,1.2,0.9,1.6c0.3,0.2,0.5,0.4,0.8,0.6C169.7,348.6,170.3,348.8,170.9,348.8L170.9,348.8z"></path>
		</g>
	</g>
	<g>
		<g>
			<path class="st1 YBBlGXWz_18" d="M175.1,344.8c1.6-0.4,3.2-0.7,4.8-1c-0.3,0-0.6,0.1-1,0.1c1.1-0.1,2.2-0.2,3.2-0.3c1-0.1,1.9-0.4,2.6-1.1
				c0.6-0.6,1.1-1.7,1.1-2.6c0-1-0.4-1.9-1.1-2.6c-0.7-0.6-1.6-1.1-2.6-1.1c-3.1,0.2-6.1,0.6-9,1.4c-0.9,0.2-1.7,0.9-2.2,1.7
				c-0.5,0.8-0.7,2-0.4,2.8C171.2,344.2,173.1,345.3,175.1,344.8L175.1,344.8z"></path>
		</g>
	</g>
	<g>
		<g>
			<path class="st1 YBBlGXWz_19" d="M436.8,493.1c6.2-24.4,4.9-50-3.4-73.8c-8.3-23.7-22.4-45-39.5-63.2c-17.5-18.8-39-33-63.2-41.7
				c-26.5-9.5-55.9-14.4-83.8-9.5c-14.2,2.5-27.6,7.8-40.6,13.7c-10.9,5-22.5,9.3-31.9,16.8c-2.2,1.8-4.2,3.7-6,5.9
				c-1.3,1.5-1.5,3.7,0,5.2c1.3,1.3,3.9,1.6,5.2,0c7.1-8.8,18-13.3,28.1-17.8c12.1-5.4,24.1-11.1,36.9-14.5
				c26.6-7.1,54.8-3.7,80.8,4.1c23.5,7.1,45,19.1,62.7,36.1c17.2,16.5,31.8,36.6,41.1,58.6c9.1,21.7,12.7,45.7,8.5,68.9
				c-0.5,3-1.2,6-2,9C428.5,495.7,435.6,497.7,436.8,493.1L436.8,493.1z"></path>
		</g>
	</g>
	<g>
		<g>
			<path class="st1 YBBlGXWz_20" d="M211.4,624c35.1,9.3,73.4,18.3,109.1,6.7c5.1-1.7,10.1-3.7,14.9-6.2c2.4-1.2,4.7-2.4,6.8-4
				c1.8-1.4,3.9-2.5,5.6-4.1c-0.5,0.3-1.1,0.6-1.6,0.9c19.4-6.9,36.2-19.3,50.2-34.2c3.5-3.7,6.8-7.6,10-11.6
				c3.2-3.9,5.4-8.4,8.8-12.2c1.9-2.1,3.4-4.7,4.8-7.1c1.4-2.3,2.7-4.7,4-7.2c2.5-4.8,4.6-9.9,6.3-15.1c3.9-11.6,5.8-23.9,6.2-36.1
				c0.2-4.7-7.2-4.7-7.4,0c-0.7,19.3-5.5,38-15.5,54.6c-1.1,1.9-2.3,3.9-3.7,5.6c-1.6,2-3.3,3.9-4.8,6c-1.1,1.6-1.9,3.3-2.9,4.8
				c-1.4,2-3.1,3.8-4.7,5.7c-5.9,6.9-12.2,13.4-19,19.3c-6.8,5.8-14.3,10.9-22.2,15c-3.9,2-8,3.6-12.1,5.2c-1.1,0.4-1.9,1.3-2.9,1.9
				c-0.8,0.5-1.6,1-2.3,1.6c-2.2,1.6-4.3,2.9-6.7,4.1c-17,8.8-36.2,11.6-55.2,10.8c-21.6-0.9-42.8-6.2-63.7-11.7
				C208.7,615.7,206.8,622.8,211.4,624L211.4,624z"></path>
		</g>
	</g>
	<g>
		<g>
			<path class="st1 YBBlGXWz_21" d="M19.9,338.7c0.4,7.9,1.6,15.6,3.2,23.3c0.8,4,1.7,8.1,2.6,12.1c0.8,3.9,2,8,2.3,12
				c0.7,8.2,1.4,16.3,2.5,24.5c1.1,8,2.4,16.1,3.7,24.1c1.5,9.1,2.9,18.2,3.9,27.4c0.3,2.3,3.9,2.4,3.7,0c-1.8-15.9-4.7-31.7-7-47.6
				c-1.2-8.2-2.2-16.5-2.8-24.8c-0.6-8.1-2.6-16-4.3-23.9c-1.9-8.9-3.6-17.9-4-27C23.4,336.3,19.8,336.3,19.9,338.7L19.9,338.7z"></path>
		</g>
	</g>
	<g>
		<g>
			<path class="st1 YBBlGXWz_22" d="M30.2,483.2c0.3,1.5,0.6,3.1,1,4.6c0.2,0.9,1.3,1.6,2.3,1.3c1-0.3,1.5-1.3,1.3-2.3c-0.4-1.5-0.7-3.1-1-4.6
				c-0.1-0.4-0.5-0.9-0.8-1.1c-0.4-0.2-1-0.3-1.4-0.2c-0.4,0.1-0.9,0.4-1.1,0.8C30.2,482.3,30.2,482.7,30.2,483.2L30.2,483.2z"></path>
		</g>
	</g>
	<g>
		<g>
			<path class="st1 YBBlGXWz_23" d="M584.8,487.8c0.5-4.9,1.5-9.7,3.1-14.4c0.4-1.3-0.7-2.2-1.8-2.3c-4-0.5-8-0.9-12-1.3c-1-0.1-1.8,0.9-1.8,1.8
				c0,1.1,0.8,1.8,1.8,1.8c4,0.4,8,0.8,12,1.3c-0.6-0.8-1.2-1.5-1.8-2.3c-1.7,5-2.7,10.2-3.2,15.4c-0.1,1,0.9,1.8,1.8,1.8
				C584,489.6,584.7,488.8,584.8,487.8L584.8,487.8z"></path>
		</g>
	</g>
	<g>
		<g>
			<path class="st1 YBBlGXWz_24" d="M575.6,338.3c-5,14.7-6.8,30.1-8.2,45.4c-1.4,16.2-2.8,32.4-4.2,48.5c-0.8,9.3-1.6,18.6-2.5,27.9
				c-0.2,2.4,3.5,2.3,3.7,0c1.4-16.4,2.9-32.8,4.3-49.2c1.4-15.4,2.2-31,4.5-46.3c1.3-8.6,3.1-17.2,5.9-25.4
				C579.9,337,576.4,336.1,575.6,338.3L575.6,338.3z"></path>
		</g>
	</g>
	<g>
		<g>
			<path class="st1 YBBlGXWz_25" d="M538.7,345.9c-2.7,14.8-5.3,29.6-6.7,44.5c-1.4,14.8-1.3,29.7-2.5,44.5c-0.7,8.5-1.7,16.9-3.3,25.3
				c-0.4,2.3,3.1,3.3,3.6,1c2.8-14.6,3.8-29.5,4.5-44.4c0.3-7.4,0.5-14.8,1.1-22.2c0.6-7.6,1.5-15.1,2.7-22.7
				c1.3-8.4,2.8-16.8,4.3-25.1C542.7,344.6,539.1,343.6,538.7,345.9L538.7,345.9z"></path>
		</g>
	</g>
	<g>
		<g>
			<path class="st1 YBBlGXWz_26" d="M578.8,339.8c1.3,1.1,3.1,1.2,4.5,0.2c1.5-1,1.9-2.7,2.1-4.4c0.3-3.3,0.5-6.5,0.7-9.8c0.1-1-0.9-1.8-1.8-1.8
				c-1.1,0-1.8,0.8-1.8,1.8c-0.2,2.6-0.4,5.1-0.5,7.7c-0.1,1.1,0,2.2-0.4,3.1c0.1-0.3-0.3,0.5-0.1,0.2c-0.1,0.1-0.1,0.2-0.2,0.2
				c0.1-0.1,0.1-0.1,0,0c0.2-0.1,0.2-0.1,0,0c-0.2,0-0.2,0,0,0c-0.4-0.1,0.2,0.1,0.3,0.2c-0.8-0.6-1.9-0.8-2.6,0
				C578.1,337.8,578,339.2,578.8,339.8L578.8,339.8z"></path>
		</g>
	</g>
	<g>
		<g>
			<path class="st1 YBBlGXWz_27" d="M379.8,341.5c12.3-2.8,25-2.4,37.6-2c13.1,0.4,26.2,0.8,39.4,1.1c6.6,0.2,13.2,0.4,19.9,0.6
				c6.5,0.2,13.1,0.7,19.6,0.4c6.3-0.4,12.6-1.5,18.9-2c6.5-0.5,13-0.7,19.5-0.7c14.6-0.1,29.1,0.9,43.6,2.7c2.3,0.3,2.3-3.4,0-3.7
				c-25.8-3.3-51.9-3.7-77.8-0.4c-6.4,0.8-12.9,0.4-19.4,0.2c-6.6-0.2-13.2-0.4-19.9-0.6c-13.2-0.4-26.5-0.8-39.7-1.1
				c-14.2-0.4-28.6-1.1-42.6,2.1C376.5,338.5,377.5,342,379.8,341.5L379.8,341.5z"></path>
		</g>
	</g>
	<g>
		<g>
			<path class="st1 YBBlGXWz_28" d="M583.7,322.2c-6.6,0.4-13.2,1.1-19.7,2c-1,0.1-1.5,1.4-1.3,2.3c0.3,1.1,1.3,1.4,2.3,1.3
				c6.2-0.9,12.5-1.5,18.7-1.9c1-0.1,1.8-0.8,1.8-1.8C585.5,323.1,584.6,322.1,583.7,322.2L583.7,322.2z"></path>
		</g>
	</g>
	<g>
		<g>
			<path class="st1 YBBlGXWz_29" d="M354.5,325c30.4,0,60.8,0,91.1,0c30.1,0,60.3,0,90.4,0c17.2,0,34.3,0,51.4,0c2.4,0,2.4-3.7,0-3.7
				c-0.9,0-1.9,0-2.8,0c-2.4,0-2.4,3.7,0,3.7c0.9,0,1.9,0,2.8,0c2.4,0,2.4-3.7,0-3.7c-30.4,0-60.8,0-91.1,0c-30.1,0-60.3,0-90.4,0
				c-17.2,0-34.3,0-51.4,0C352.2,321.3,352.2,325,354.5,325L354.5,325z"></path>
		</g>
	</g>
	<g>
		<g>
			<path class="st1 YBBlGXWz_30" d="M583.4,326.9c0.3,3.2,0.1,6.4-0.6,9.5c-0.1,0.4-0.1,0.7-0.3,1c0,0.1,0,0.1,0,0c0,0.1-0.1,0.1-0.1,0.2
				c0.3-0.3,0.4-0.3,0.2-0.2c-0.1,0.1-0.1,0.1,0,0c0.1,0-0.3,0.1,0,0c-0.2,0-0.5,0-0.7,0.1c-0.4,0-0.8,0-1.2,0.1
				c-1.7,0.1-3.4,0-5.1-0.3c-1-0.1-1.8,0.9-1.8,1.8c0,1.1,0.9,1.7,1.8,1.8c1.9,0.3,3.8,0.3,5.8,0.2c1-0.1,2-0.1,2.9-0.5
				c1-0.5,1.5-1.4,1.8-2.4c1-3.6,1.2-7.6,0.9-11.3c-0.1-1-0.8-1.8-1.8-1.8C584.3,325.1,583.3,325.9,583.4,326.9L583.4,326.9z"></path>
		</g>
	</g>
	<g>
		<g>
			<path class="st1 YBBlGXWz_31" d="M18.9,341.1c2.4,0,2.4-3.7,0-3.7C16.6,337.4,16.5,341.1,18.9,341.1L18.9,341.1z"></path>
		</g>
	</g>
	<g>
		<g>
			<path class="st1 YBBlGXWz_32" d="M18.9,337.4c-1.7,0.1-3.5,0.1-5.2-0.1c-0.3,0,0.4,0.1-0.2,0c0,0-0.4-0.1-0.4-0.1c0.2-0.2,0.2,0.4,0.2,0.1
				c0-0.1-0.1-0.5-0.1-0.2c0-0.1,0-0.3,0-0.4c0-0.5,0-0.9-0.1-1.4c-0.2-3.5-0.4-7-0.5-10.4c-0.1-1-0.8-1.8-1.8-1.8
				c-1,0-1.9,0.8-1.8,1.8c0.2,4,0.4,8,0.6,12c0.1,2,1.1,3.7,3.2,4c2,0.4,4.2,0.3,6.2,0.2c1,0,1.8-0.8,1.8-1.8
				C20.8,338.3,19.9,337.3,18.9,337.4L18.9,337.4z"></path>
		</g>
	</g>
	<g>
		<g>
			<path class="st1 YBBlGXWz_33" d="M11.4,326.1c47.9,0,95.8,0,143.6,0c13.5,0,27,0,40.5,0c2.4,0,2.4-3.7,0-3.7c-47.9,0-95.8,0-143.6,0
				c-13.5,0-27,0-40.5,0C9.1,322.4,9.1,326.1,11.4,326.1L11.4,326.1z"></path>
		</g>
	</g>
	<g>
		<g>
			<path class="st1 YBBlGXWz_34" d="M34.4,497.9c27,0,53.9,0,80.8,0c2.4,0,2.4-3.7,0-3.7c-2.1,0-4.3,0-6.4,0c-2.4,0-2.4,3.7,0,3.7
				c2.1,0,4.3,0,6.4,0c0-1.2,0-2.5,0-3.7c-27,0-53.9,0-80.8,0C32.1,494.2,32.1,497.9,34.4,497.9L34.4,497.9z"></path>
		</g>
	</g>
	<g>
		<g>
			<path class="st1 YBBlGXWz_35" d="M29.5,470.4c-0.9,8.6,0,17.4,2.7,25.6c0.7,2.2,4.3,1.3,3.6-1c-2.6-8-3.4-16.3-2.5-24.6
				c0.1-1-0.9-1.8-1.8-1.8C30.3,468.5,29.6,469.4,29.5,470.4L29.5,470.4z"></path>
		</g>
	</g>
	<g>
		<g>
			<path class="st1 YBBlGXWz_36" d="M31.8,471.7c4.5,0,8.9,0,13.4,0c1,0,1.8-0.8,1.8-1.8c0-1-0.8-1.8-1.8-1.8c-4.5,0-8.9,0-13.4,0
				c-1,0-1.8,0.8-1.8,1.8C29.9,470.8,30.8,471.7,31.8,471.7L31.8,471.7z"></path>
		</g>
	</g>
	<g>
		<g>
			<path class="st1 YBBlGXWz_37" d="M44.6,471.2c20,0,40.1,0,60.1,0c2.4,0,2.4-3.7,0-3.7c-25.2,0-50.4,0-75.6,0c-2.4,0-2.4,3.7,0,3.7
				c25.2,0,50.4,0,75.6,0c2.4,0,2.4-3.7,0-3.7c-20,0-40.1,0-60.1,0C42.2,467.5,42.2,471.2,44.6,471.2L44.6,471.2z"></path>
		</g>
	</g>
	<g>
		<g>
			<path class="st1 YBBlGXWz_38" d="M41.1,468.2c0-2.1,0-4.3,0-6.4c0-1-0.8-1.9-1.8-1.8c-1,0-1.8,0.8-1.8,1.8c0,2.1,0,4.3,0,6.4
				c0,1,0.8,1.9,1.8,1.8C40.3,470,41.1,469.3,41.1,468.2L41.1,468.2z"></path>
		</g>
	</g>
	<g>
		<g>
			<path class="st1 YBBlGXWz_39" d="M18.4,340.5c40.6,0,81.2,0,121.8,0c11.5,0,23,0,34.5,0c2.4,0,2.4-3.7,0-3.7c-40.6,0-81.2,0-121.8,0
				c-11.5,0-23,0-34.5,0C16,336.9,16,340.5,18.4,340.5L18.4,340.5z"></path>
		</g>
	</g>
	<g>
		<g>
			<path class="st1 YBBlGXWz_40" d="M440.7,472.8c37.9,0,75.9,0,113.8,0c10.8,0,21.5,0,32.3,0c2.4,0,2.4-3.7,0-3.7c-37.9,0-75.9,0-113.8,0
				c-10.8,0-21.5,0-32.3,0C438.4,469.1,438.4,472.8,440.7,472.8L440.7,472.8z"></path>
		</g>
	</g>
	<g>
		<g>
			<path class="st1 YBBlGXWz_41" d="M437,497.4c37.8,0,75.5,0,113.2,0c10.8,0,21.6,0,32.4,0c2.4,0,2.4-3.7,0-3.7c-37.8,0-75.5,0-113.2,0
				c-10.8,0-21.6,0-32.4,0C434.6,493.7,434.6,497.4,437,497.4L437,497.4z"></path>
		</g>
	</g>
	<g>
		<g>
			<path class="st1 YBBlGXWz_42" d="M584.6,471c-1.6,8.7-3,17.5-4.2,26.2c-0.1,1,0.2,2,1.3,2.3c0.9,0.3,2.1-0.3,2.3-1.3
				c1.2-8.8,2.6-17.5,4.2-26.2C588.6,469.6,585.1,468.6,584.6,471L584.6,471z"></path>
		</g>
	</g>
	<g>
		<g>
			<path class="st1 YBBlGXWz_43" d="M585.7,484.1c21.1-2,42.2-3.7,63.3-5.5c20.9-1.8,41.7-3.9,62.5-6.1c42-4.4,84-8.8,126.1-13.2
				c11.7-1.2,23.4-2.5,35.1-3.7c2.9-0.3,5.9-0.6,8.8-0.9c2.1-0.2,5-0.1,6.7-1.5c1.9-1.6,1.6-4.3,1.7-6.5c0.1-3.2,0.2-6.4,0.3-9.5
				c0.1-2.4-3.6-2.4-3.7,0c-0.1,2.6-0.2,5.1-0.2,7.7c0,1.2-0.1,2.4-0.1,3.7c0,1.4-0.2,2-1.7,2.2c-5.1,0.8-10.3,1.1-15.4,1.6
				c-10.2,1.1-20.5,2.2-30.7,3.2c-20.5,2.2-41,4.3-61.5,6.5c-40.6,4.3-81.3,8.9-122,12.4c-23,2-46.1,3.8-69.1,6
				C583.4,480.7,583.4,484.4,585.7,484.1L585.7,484.1z"></path>
		</g>
	</g>
	<g>
		<g>
			<path class="st1 YBBlGXWz_44" d="M568.1,450.7c41.6-0.4,83.1-1.8,124.6-3.5c41.5-1.8,82.9-3.8,124.4-5.8c23.2-1.1,46.3-2.2,69.5-3.3
				c2.4-0.1,2.4-3.8,0-3.7c-41.4,2-82.7,4-124,6c-41.5,2-83.1,4-124.6,5.3c-23.3,0.7-46.6,1.3-69.9,1.5
				C565.7,447.1,565.7,450.8,568.1,450.7L568.1,450.7z"></path>
		</g>
	</g>
	<g>
		<g>
			<path class="st1 YBBlGXWz_45" d="M211.1,618.8c-9.6-5.9-18.9-12.5-28.3-18.8c-4.6-3.1-9.4-6-13.6-9.5c-4-3.3-7.3-7.3-10.1-11.6
				c-1.3-2-4.5-0.1-3.2,1.9c2.9,4.4,6.2,8.5,10.2,11.9c4.3,3.6,9.1,6.6,13.7,9.7c9.8,6.6,19.5,13.4,29.5,19.6
				C211.3,623.2,213.1,620,211.1,618.8L211.1,618.8z"></path>
		</g>
	</g>
	<g>
		<g>
			<path class="st1 YBBlGXWz_46" d="M150.5,579.5c3.7,5.7,8.6,10.5,13.7,15c5.4,4.7,10.8,9.5,16.5,14c5.3,4.1,11,7.2,17,10
				c6,2.8,12,5.5,17.3,9.5c1.9,1.4,3.7-1.8,1.9-3.2c-10.3-7.8-23.2-10.8-33.4-18.8c-5.5-4.3-10.8-9-16.1-13.6
				c-5-4.4-9.9-9-13.6-14.6C152.4,575.7,149.2,577.5,150.5,579.5L150.5,579.5z"></path>
		</g>
	</g>
	<g>
		<g>
			<path class="st1 YBBlGXWz_47" d="M194.5,607.7c-4.6-1.4-8.9-3.7-12.7-6.7c-0.8-0.6-1.9-0.8-2.6,0c-0.8,0.8-0.6,1.8,0,2.6
				c3.5,4.4,7.8,8.1,12.6,11c0.9,0.5,2,0.2,2.5-0.7c0.5-0.9,0.2-2-0.7-2.5c-4.6-2.7-8.6-6.2-11.9-10.4c-0.9,0.9-1.7,1.7-2.6,2.6
				c4.2,3.4,9.1,6,14.3,7.6c1,0.3,2-0.4,2.3-1.3C196,608.9,195.4,607.9,194.5,607.7L194.5,607.7z"></path>
		</g>
	</g>
	<g>
		<g>
			<path class="st1 YBBlGXWz_48" d="M110.2,493.4c-0.2,2.4,0,4.7,0.3,7.1c1-0.6,2-1.2,3.1-1.8c-0.8-0.9-1.5-1.8-2.3-2.7c-0.5-0.6-1.4-0.6-2-0.4
				c-0.7,0.3-1.1,0.9-1.1,1.7c-0.1,1,0.3,2.1,1,2.9c0.3,0.4,0.8,0.7,1.3,0.8c0.8,0.2,1.6-0.1,2.2-0.6c0.7-0.6,0.7-2,0-2.6
				c-0.8-0.7-1.8-0.7-2.6,0c0.3-0.2,0.4-0.3,0.2-0.2c0.4-0.1,0.4-0.2,0.3-0.1c0.2,0,0.3,0,0.5-0.1c0,0-0.1,0-0.1,0
				c0.2,0,0.3,0,0.5,0.1c-0.2,0-0.2-0.1,0.2,0.1c-0.2-0.1,0.2,0.2,0.2,0.2c0,0,0,0-0.1-0.1c-0.1-0.1,0,0,0.2,0.2
				c0-0.1-0.1-0.1-0.1-0.2c0,0-0.1-0.2-0.1-0.2c0,0,0.2,0.5,0.1,0.2c0-0.1-0.1-0.3-0.1-0.5c0,0.2,0,0.3,0.1,0.5c0-0.2,0-0.3,0-0.5
				c-1,0.4-2.1,0.9-3.1,1.3c0.8,0.9,1.5,1.8,2.3,2.7c0.5,0.6,1.6,0.7,2.2,0.3c0.3-0.2,0.5-0.4,0.7-0.7c0.3-0.4,0.3-0.9,0.2-1.4
				c0-0.2,0-0.3-0.1-0.5c0,0.2,0,0.3,0.1,0.5c-0.3-2-0.3-4-0.2-6.1c0.1-1-0.9-1.9-1.8-1.8C111,491.6,110.3,492.4,110.2,493.4
				L110.2,493.4z"></path>
		</g>
	</g>
	<g>
		<g>
			<path class="st1 YBBlGXWz_49" d="M216.7,598.8c23.6,10.4,49.8,14.6,75.4,11.6c7.3-0.8,14.5-2.2,21.6-4.2c2.3-0.6,1.3-4.2-1-3.6
				c-24.1,6.7-49.9,6.6-74.1,0c-6.9-1.9-13.6-4.2-20.1-7.1C216.4,594.7,214.6,597.8,216.7,598.8L216.7,598.8z"></path>
		</g>
	</g>
	<g>
		<g>
			<path class="st1 YBBlGXWz_50" d="M137.1,506.3c7.5,26.8,22.6,51.3,43.6,69.6c6.7,5.8,13.9,11,21.5,15.5c2,1.2,3.9-2,1.9-3.2
				c-24.3-14.3-43.6-35.8-55.5-61.4c-3.2-6.9-5.8-14.1-7.9-21.5C140,503,136.5,504,137.1,506.3L137.1,506.3z"></path>
		</g>
	</g>
	<g>
		<g>
			<path class="st1 YBBlGXWz_51" d="M147.6,400.4c-10.8,21.9-16.3,46.3-15.6,70.7c0.2,6.9,0.9,13.7,2,20.6c0.4,2.3,3.9,1.3,3.6-1
				c-3.8-23.2-1.9-47.3,5.5-69.6c2.1-6.4,4.7-12.7,7.7-18.8C151.8,400.2,148.6,398.3,147.6,400.4L147.6,400.4z"></path>
		</g>
	</g>
	<g>
		<g>
			<path class="st1 YBBlGXWz_52" d="M240.3,328.3c-26.1,6-50.6,19.3-69.3,38.6c-5.3,5.5-10.1,11.4-14.3,17.7c-1.3,2,1.9,3.8,3.2,1.9
				c14.6-21.7,36.1-38.4,60.3-48.1c6.8-2.7,13.9-4.9,21-6.5C243.5,331.3,242.6,327.8,240.3,328.3L240.3,328.3z"></path>
		</g>
	</g>
	<g>
		<g>
			<path class="st1 YBBlGXWz_53" d="M411.8,431.6c-5.8-28.2-21.8-53.5-43.7-72c-22-18.5-49.3-30.3-77.8-33.9c-16.2-2-32.7-1.3-48.6,2.3
				c-2.3,0.5-1.3,4.1,1,3.6c27.6-6.3,56.7-3.4,82.9,6.9c25.8,10.2,49,27.8,64.5,50.9c8.8,13.1,15,27.7,18.2,43.1
				C408.8,434.9,412.3,433.9,411.8,431.6L411.8,431.6z"></path>
		</g>
	</g>
	<g>
		<g>
			<path class="st1 YBBlGXWz_54" d="M408.6,516.3c9.2-26.5,10.9-55.5,3.7-82.7c-0.6-2.3-4.2-1.3-3.6,1c7,26.6,5.3,54.9-3.7,80.8
				C404.2,517.6,407.8,518.5,408.6,516.3L408.6,516.3z"></path>
		</g>
	</g>
	<g>
		<g>
			<path class="st1 YBBlGXWz_55" d="M361.2,581.7c16.4-12.3,29.6-28.2,39.1-46.3c1.1-2.1-2.1-4-3.2-1.9c-9.2,17.5-21.9,33.1-37.7,45
				C357.5,580,359.3,583.2,361.2,581.7L361.2,581.7z"></path>
		</g>
	</g>
	<g>
		<g>
			<path class="st1 YBBlGXWz_56" d="M313.4,607.6c16.2-6.8,32.1-14.6,46.4-24.8c1.9-1.4,0.1-4.6-1.9-3.2c-14,10.1-29.6,17.8-45.5,24.5
				C310.3,604.9,311.3,608.5,313.4,607.6L313.4,607.6z"></path>
		</g>
	</g>
	<g>
		<g>
			<path class="st1 YBBlGXWz_57" d="M249,452c-24.5-12.7-48.5-26.3-72-40.7c-6.6-4.1-13.2-8.3-19.7-12.5c-2-1.3-3.8,1.9-1.9,3.2
				c23.2,15,46.9,29.1,71.1,42.3c6.8,3.7,13.7,7.4,20.6,10.9C249.3,456.3,251.1,453.1,249,452L249,452z"></path>
		</g>
	</g>
	<g>
		<g>
			<path class="st1 YBBlGXWz_58" d="M242.6,462.5c-14.5-1.7-28.9-3.3-43.4-4.9c-14-1.6-27.8-3.3-41.3-7.3c-7.3-2.2-14.6-4.5-22.3-4.6
				c-2.4,0-2.4,3.6,0,3.7c6.9,0.1,13.5,2.1,20,4.1c6.6,2,13.2,3.6,20,4.7c14,2.4,28.1,3.6,42.2,5.2c8.3,0.9,16.5,1.9,24.8,2.8
				C244.9,466.5,244.9,462.8,242.6,462.5L242.6,462.5z"></path>
		</g>
	</g>
	<g>
		<g>
			<path class="st1 YBBlGXWz_59" d="M139.9,504.1c7-0.4,13.7-2.3,20.4-4.4c6.7-2.1,13.4-4.2,20.2-6.2c13.6-4,27.4-7.7,41.2-11.1
				c7.9-1.9,15.8-3.7,23.8-5.5c2.3-0.5,1.3-4.1-1-3.6c-27.5,5.9-54.7,13.1-81.4,21.6c-7.5,2.4-15.1,4.9-23.1,5.4
				C137.5,500.5,137.5,504.2,139.9,504.1L139.9,504.1z"></path>
		</g>
	</g>
	<g>
		<g>
			<path class="st1 YBBlGXWz_60" d="M165.5,550.8c5.6-2.5,10.6-6.2,15.4-10c5.2-4.1,10.3-8.1,15.5-12.2c10.9-8.6,21.8-17.2,32.7-25.7
				c6.3-4.9,12.6-9.9,18.9-14.8c1.9-1.5-0.8-4.1-2.6-2.6c-21.4,16.9-43,33.6-64.3,50.6c-5.5,4.3-11,8.7-17.4,11.6
				C161.5,548.6,163.3,551.7,165.5,550.8L165.5,550.8z"></path>
		</g>
	</g>
	<g>
		<g>
			<path class="st1 YBBlGXWz_61" d="M207.2,589.3c13.5-24.3,26.7-48.9,40.6-73.1c3.6-6.2,7.5-12.3,12.5-17.6c1.6-1.7-1-4.3-2.6-2.6
				c-9.1,9.5-14.9,21.6-21.2,33c-6.9,12.5-13.9,25-20.8,37.5c-3.9,7-7.7,14-11.6,20.9C202.9,589.5,206.1,591.4,207.2,589.3
				L207.2,589.3z"></path>
		</g>
	</g>
	<g>
		<g>
			<path class="st1 YBBlGXWz_62" d="M189.5,354.7c5.2,12.5,14,22.9,22.2,33.5c9.1,11.7,18.2,23.5,27.4,35.2c5.3,6.8,10.6,13.6,15.8,20.4
				c1.5,1.9,4-0.8,2.6-2.6c-9-11.5-17.9-23.1-26.9-34.6c-8.7-11.2-17.6-22.3-26.1-33.6c-4.5-6-8.7-12.3-11.5-19.2
				C192.1,351.6,188.5,352.5,189.5,354.7L189.5,354.7z"></path>
		</g>
	</g>
	<g>
		<g>
			<path class="st1 YBBlGXWz_63" d="M240.1,330.7c-0.4,7.4,1.7,14.6,3.8,21.7c2.3,7.4,4.6,14.8,6.9,22.2c4.4,14.3,8.8,28.9,9.9,43.9
				c0.4,5.9-0.1,13.5,5.8,16.9c2,1.2,3.9-2,1.9-3.2c-4.7-2.7-3.7-10.6-4.1-15.2c-0.6-7-1.9-14-3.5-20.8c-3.3-14-8-27.7-12.2-41.5
				c-2.4-7.8-5.2-15.8-4.8-24.1C243.9,328.3,240.3,328.3,240.1,330.7L240.1,330.7z"></path>
		</g>
	</g>
	<g>
		<g>
			<path class="st1 YBBlGXWz_64" d="M269,433c-6-11.8-8.9-25-11.8-37.8c-3.1-13.1-5.8-26.2-8.9-39.3c-1.8-7.5-3.8-15-6-22.4
				c-0.7-2.3-4.2-1.3-3.6,1c7.9,26.1,12.2,53.1,19.4,79.4c2,7.2,4.4,14.2,7.8,20.9C266.9,437,270,435.1,269,433L269,433z"></path>
		</g>
	</g>
	<g>
		<g>
			<path class="st1 YBBlGXWz_65" d="M292.1,331.7c-2.4,27.5-5.8,54.8-10.2,82c-1.3,7.8-2.6,15.5-4,23.3c-0.4,2.3,3.1,3.3,3.6,1
				c5-27.3,9-54.8,12-82.4c0.9-7.9,1.6-15.9,2.3-23.9C296,329.3,292.3,329.3,292.1,331.7L292.1,331.7z"></path>
		</g>
	</g>
	<g>
		<g>
			<path class="st1 YBBlGXWz_66" d="M295,438.3c4.3-11.9,10.6-22.4,17.8-32.7c7.6-10.9,13.4-23.1,19.7-34.8c3.6-6.8,7.3-13.6,10.9-20.4
				c1.1-2.1-2.1-3.9-3.2-1.9c-6.5,12.2-13.1,24.4-19.6,36.6c-3.1,5.8-6.2,11.5-9.9,16.9c-3.6,5.3-7.4,10.5-10.6,16.1
				c-3.5,6.1-6.4,12.6-8.8,19.2C290.7,439.6,294.2,440.6,295,438.3L295,438.3z"></path>
		</g>
	</g>
	<g>
		<g>
			<path class="st1 YBBlGXWz_67" d="M301,451.3c22.6-16.2,45-32.9,67.1-49.9c6.2-4.8,12.4-9.6,18.6-14.4c1.9-1.5-0.8-4.1-2.6-2.6
				c-21.7,17-43.7,33.7-65.9,50c-6.3,4.6-12.6,9.2-19,13.7C297.3,449.5,299.1,452.7,301,451.3L301,451.3z"></path>
		</g>
	</g>
	<g>
		<g>
			<path class="st1 YBBlGXWz_68" d="M307.3,461.6c26.2-4.6,52.2-10.4,77.9-17.4c7.3-2,14.6-4.1,21.9-6.3c2.3-0.7,1.3-4.2-1-3.6
				c-25.5,7.7-51.3,14.2-77.4,19.5c-7.5,1.5-14.9,2.9-22.4,4.2C304,458.4,305,462,307.3,461.6L307.3,461.6z"></path>
		</g>
	</g>
	<g>
		<g>
			<path class="st1 YBBlGXWz_69" d="M357.3,580.1c-15.5-21.8-31-43.6-46.4-65.4c-4.3-6.2-8.7-12.3-13-18.5c-1.4-1.9-4.5-0.1-3.2,1.9
				c15.3,21.9,30.8,43.7,46.3,65.5c4.4,6.1,8.7,12.3,13.1,18.4C355.4,583.9,358.6,582,357.3,580.1L357.3,580.1z"></path>
		</g>
	</g>
	<g>
		<g>
			<path class="st1 YBBlGXWz_70" d="M204.4,591.6c2.6,2.3,5.4,4.4,8.4,6.2c0.8,0.5,2.1,0.2,2.5-0.7c0.5-0.9,0.2-2-0.7-2.5
				c-1.4-0.8-2.8-1.8-4.1-2.7c-0.2-0.1-0.3-0.2-0.5-0.4c-0.1-0.1-0.2-0.1-0.2-0.2c0,0-0.3-0.2-0.1-0.1c0.2,0.1-0.1-0.1-0.1-0.1
				c-0.1-0.1-0.1-0.1-0.2-0.2c-0.2-0.1-0.3-0.3-0.5-0.4c-0.6-0.5-1.3-1.1-1.9-1.6c-0.7-0.6-1.9-0.8-2.6,0
				C203.8,589.7,203.7,590.9,204.4,591.6L204.4,591.6z"></path>
		</g>
	</g>
	<g>
		<g>
			<path class="st1 YBBlGXWz_71" d="M158.9,381.3c-3.6,6.4-7.2,12.8-10.8,19.2c-1.2,2.1,2,3.9,3.2,1.9c3.6-6.4,7.2-12.8,10.8-19.2
				C163.3,381.1,160.1,379.2,158.9,381.3L158.9,381.3z"></path>
		</g>
	</g>
	<g>
		<g>
			<path class="st1 YBBlGXWz_72" d="M133.1,488.6c0.2,6.1,1,12.2,2.5,18.1c0.6,2.3,4.1,1.3,3.6-1c-1.4-5.6-2.2-11.3-2.4-17.1
				C136.7,486.2,133,486.2,133.1,488.6L133.1,488.6z"></path>
		</g>
	</g>
	<g>
		<g>
			<path class="st1 YBBlGXWz_73" d="M399.4,537.1c2.7-6.4,5.3-12.7,8-19.1c0.4-0.9-0.4-2-1.3-2.3c-1.1-0.3-1.9,0.4-2.3,1.3
				c-2.7,6.4-5.3,12.7-8,19.1c-0.4,0.9,0.4,2,1.3,2.3C398.2,538.7,399,538.1,399.4,537.1L399.4,537.1z"></path>
		</g>
	</g>
	<g>
		<g>
			<path class="st1 YBBlGXWz_74" d="M526.4,459.7c-0.4,3-0.8,6-1.3,9.1c-0.1,0.5-0.1,1,0.2,1.4c0.2,0.4,0.7,0.8,1.1,0.8c0.9,0.2,2.1-0.3,2.3-1.3
				c0.4-3,0.8-6,1.3-9.1c0.1-0.5,0.1-1-0.2-1.4c-0.2-0.4-0.7-0.8-1.1-0.8C527.8,458.3,526.5,458.7,526.4,459.7L526.4,459.7z"></path>
		</g>
	</g>
	<g>
		<g>
			<path class="st1 YBBlGXWz_75" d="M541.6,346.2c0-0.1-0.1-0.4-0.1-0.5c0,0.3,0,0.3,0,0.2c0-0.1,0-0.1,0-0.2c0-0.3-0.1-0.6-0.1-0.9
				c0-0.6,0-1.2,0.1-1.8c0-0.1,0-0.1,0,0.2c0-0.1,0-0.2,0-0.3c0-0.1,0-0.3,0.1-0.4c0.1-0.3,0.1-0.6,0.2-0.9c0.1-0.3,0.2-0.6,0.3-0.9
				c0-0.1,0.1-0.3,0.1-0.4c0.1-0.2,0.1-0.2,0,0.1c0-0.1,0.1-0.2,0.1-0.2c0.2-0.5,0.3-0.9,0.2-1.4c-0.1-0.4-0.4-0.9-0.8-1.1
				c-0.8-0.4-2.1-0.3-2.5,0.7c-1.3,2.8-1.7,5.9-1.1,8.9c0.2,0.9,1.4,1.6,2.3,1.3C541.3,348.2,541.8,347.2,541.6,346.2L541.6,346.2z"></path>
		</g>
	</g>
	<g>
		<g>
			<path class="st1 YBBlGXWz_76" d="M563.2,438.2c0.2,10.8-4.2,21.4-1.8,32.2c0.5,2.3,4.1,1.3,3.6-1c-2.3-10.4,2.1-20.8,1.9-31.2
				C566.9,435.8,563.2,435.8,563.2,438.2L563.2,438.2z"></path>
		</g>
	</g>
	<g>
		<g>
			<path class="st1 YBBlGXWz_77" d="M244.5,474.9c-0.2-0.6-0.4-1.2-0.6-1.9c0-0.2-0.1-0.4-0.1-0.5c0,0.5,0,0.1,0-0.1c0-0.4,0-0.7,0-1
				c0-0.3,0-0.6,0-1c0-0.1,0-0.1,0-0.2c0,0.3,0,0.3,0,0.1c0-0.2,0.1-0.3,0.1-0.5c0.1-0.3,0.1-0.6,0.3-0.9c0-0.2,0.1-0.3,0.2-0.5
				c0-0.1,0.1-0.2,0.1-0.3c-0.1,0.2-0.1,0.2,0,0.1c0.4-0.9,0.3-2-0.7-2.5c-0.8-0.4-2.1-0.3-2.5,0.7c-1.4,3-1.5,6.5-0.3,9.6
				c0.2,0.5,0.4,0.8,0.8,1.1c0.4,0.2,1,0.3,1.4,0.2C244.1,476.9,244.9,475.9,244.5,474.9L244.5,474.9z"></path>
		</g>
	</g>
	<g>
		<g>
			<path class="st1 YBBlGXWz_78" d="M242.7,468.5c2.4,0,2.4-3.7,0-3.7C240.3,464.8,240.3,468.5,242.7,468.5L242.7,468.5z"></path>
		</g>
	</g>
	<g>
		<g>
			<path class="st1 YBBlGXWz_79" d="M244.4,466.6c0-0.5,0-1,0.1-1.6c0-0.1,0-0.3,0-0.4c0.1-0.6,0,0.2,0-0.2c0-0.3,0.1-0.5,0.1-0.8
				c0.2-1.1,0.5-2.1,0.9-3.1c-0.1,0.2,0,0,0-0.1c0.1-0.1,0.1-0.2,0.2-0.4c0.1-0.2,0.2-0.5,0.4-0.7c0.3-0.5,0.5-0.9,0.8-1.4
				c0.6-0.9,1.1-1.5,1.9-2.4c0.7-0.7,0.7-1.9,0-2.6c-0.7-0.7-1.9-0.7-2.6,0c-3.6,3.6-5.6,8.5-5.6,13.5c0,1,0.9,1.9,1.8,1.8
				C243.5,468.4,244.4,467.7,244.4,466.6L244.4,466.6z"></path>
		</g>
	</g>
	<g>
		<g>
			<path class="st1 YBBlGXWz_80" d="M285.6,442.2c1.3,0.2,2.5,0.5,3.7,0.8c-0.3-1-0.5-2-0.8-3.1c-0.1,0.1-0.1,0.1-0.2,0.2
				c0.1-0.1,0.3-0.2,0.4-0.3c-0.1,0.1-0.2,0.1-0.4,0.2c0.1-0.1,0.3-0.1,0.4-0.2c-0.2,0.1-0.5,0.1-0.8,0.2c-0.4,0.1-0.9,0.5-1.1,0.8
				c-0.2,0.4-0.3,1-0.2,1.4c0.1,0.4,0.4,0.9,0.8,1.1c0.4,0.2,0.9,0.3,1.4,0.2c0.3-0.1,0.5-0.1,0.7-0.2c0.5-0.2,1-0.4,1.4-0.8
				c0.5-0.5,0.6-1.2,0.5-1.8c-0.2-0.6-0.7-1.1-1.3-1.3c-1.2-0.3-2.5-0.5-3.7-0.8c-0.3-0.1-0.5-0.1-0.7,0c-0.3,0-0.5,0.1-0.7,0.2
				c-0.4,0.2-0.8,0.7-0.8,1.1c-0.1,0.5-0.1,1,0.2,1.4C284.7,441.7,285.1,442.1,285.6,442.2L285.6,442.2z"></path>
		</g>
	</g>
	<g>
		<g>
			<path class="st1 YBBlGXWz_81" d="M385.6,336.3c-4.3-0.1-8.7,0.6-12.7,2c-0.9,0.3-1.6,1.3-1.3,2.3c0.3,0.9,1.3,1.6,2.3,1.3
				c3.8-1.4,7.7-2,11.7-1.9c1,0,1.9-0.9,1.8-1.8C387.4,337.1,386.6,336.3,385.6,336.3L385.6,336.3z"></path>
		</g>
	</g>
	<g>
		<g>
			<path class="st1 YBBlGXWz_82" d="M359.4,320.8c-3.4,0-6.8,0-10.2,0c-1,0-1.9,0.8-1.8,1.8c0,1,0.8,1.8,1.8,1.8c3.4,0,6.8,0,10.2,0
				c1,0,1.9-0.8,1.8-1.8C361.2,321.7,360.4,320.8,359.4,320.8L359.4,320.8z"></path>
		</g>
	</g>
	<g>
		<g>
			<path class="st1 YBBlGXWz_83" d="M268,438.7c-11.1,2.6-21.6,10.4-25.3,21.5c-0.8,2.3,2.8,3.2,3.6,1c3.3-9.9,12.9-16.6,22.7-18.9
				C271.2,441.7,270.3,438.2,268,438.7L268,438.7z"></path>
		</g>
	</g>
	<g>
		<g>
			<path class="st1 YBBlGXWz_84" d="M304.5,466.8c-0.3-8.6-3.1-17.8-9.9-23.5c-6-5-14.6-6.7-22.2-6c-4.2,0.4-8.6,1.5-11.7,4.6
				c-1.7,1.7,0.9,4.3,2.6,2.6c3-3,7.6-3.6,11.7-3.7c4.2,0,8.6,0.7,12.5,2.3c9.3,3.9,13,14.4,13.4,23.7
				C300.9,469.1,304.6,469.2,304.5,466.8L304.5,466.8z"></path>
		</g>
	</g>
	<g>
		<g>
			<path class="st1 YBBlGXWz_85" d="M242.4,469c2.3,9.7,5.9,20,14.4,25.9c4.2,3,9.2,4.1,14.3,4.6c5,0.5,10.2,0.4,15.1-0.9
				c5.6-1.5,10.5-4.5,13.7-9.3c1.3-2-1.8-3.8-3.2-1.9c-5.3,7.7-15.6,9.2-24.2,8.5c-4.5-0.3-9-1.2-12.9-3.6c-3.7-2.3-6.5-5.8-8.6-9.7
				c-2.5-4.6-3.9-9.7-5.1-14.7C245.4,465.7,241.9,466.7,242.4,469L242.4,469z"></path>
		</g>
	</g>
	<g>
		<g>
			<path class="st1 YBBlGXWz_86" d="M264.9,432.9c0,1.6,0,3.2,0,4.8c0,1,0.8,1.9,1.8,1.8c1,0,1.8-0.8,1.8-1.8c0-1.6,0-3.2,0-4.8
				c0-1-0.8-1.9-1.8-1.8C265.8,431.1,264.9,431.9,264.9,432.9L264.9,432.9z"></path>
		</g>
	</g>
	<g>
		<g>
			<path class="st1 YBBlGXWz_87" d="M293.7,436.3c-0.4,0.8-0.8,1.6-1.4,2.4c0.1-0.1,0.2-0.3,0.3-0.4c-0.6,0.8-1.3,1.4-2,2
				c0.1-0.1,0.3-0.2,0.4-0.3c-0.2,0.1-0.3,0.3-0.5,0.4c-0.4,0.3-0.7,0.6-0.8,1.1c-0.1,0.4-0.1,1,0.2,1.4c0.3,0.4,0.6,0.7,1.1,0.8
				c0.5,0.1,1,0.1,1.4-0.2c2-1.4,3.6-3.2,4.5-5.4c0.2-0.5,0.3-0.9,0.2-1.4c-0.1-0.4-0.4-0.9-0.8-1.1c-0.4-0.2-0.9-0.3-1.4-0.2
				C294.3,435.6,293.8,435.9,293.7,436.3L293.7,436.3z"></path>
		</g>
	</g>
	<g>
		<g>
			<path class="st1 YBBlGXWz_88" d="M296.4,500.4c0-0.5-0.1-1.1-0.3-1.6c-0.1-0.3-0.3-0.6-0.4-0.9c-0.2-0.3-0.4-0.6-0.6-0.8
				c-0.1-0.1-0.3-0.3-0.4-0.4c-0.3-0.2-0.5-0.4-0.8-0.6c-0.5-0.3-1-0.5-1.5-0.6c-0.3-0.1-0.5-0.1-0.7,0c-0.3,0-0.5,0.1-0.7,0.2
				c-0.4,0.2-0.8,0.7-0.8,1.1c-0.1,0.5-0.1,1,0.2,1.4c0.3,0.4,0.6,0.8,1.1,0.8c0.2,0,0.4,0.1,0.6,0.2c-0.1-0.1-0.3-0.1-0.4-0.2
				c0.3,0.1,0.5,0.3,0.7,0.4c-0.1-0.1-0.3-0.2-0.4-0.3c0.2,0.2,0.4,0.4,0.6,0.6c-0.1-0.1-0.2-0.3-0.3-0.4c0.2,0.2,0.3,0.5,0.4,0.7
				c-0.1-0.1-0.1-0.3-0.2-0.4c0.1,0.3,0.2,0.5,0.2,0.8c0-0.2,0-0.3-0.1-0.5c0,0.1,0,0.3,0,0.4c0,0.5,0.2,1,0.5,1.3
				c0.3,0.3,0.8,0.6,1.3,0.5c0.5,0,1-0.2,1.3-0.5C296.2,501.3,296.4,500.9,296.4,500.4L296.4,500.4z"></path>
		</g>
	</g>
	<g>
		<g>
			<path class="st1 YBBlGXWz_89" d="M295.8,496.7c-0.3-0.9-0.6-1.8-1-2.7c-0.2-0.5-0.4-0.9-0.8-1.1c-0.2-0.1-0.4-0.2-0.7-0.2
				c-0.3-0.1-0.5,0-0.7,0c-0.4,0.1-0.9,0.4-1.1,0.8c-0.2,0.4-0.4,1-0.2,1.4c0.3,0.9,0.6,1.8,1,2.7c0.2,0.5,0.4,0.9,0.8,1.1
				c0.2,0.1,0.4,0.2,0.7,0.2c0.3,0.1,0.5,0,0.7,0c0.4-0.1,0.9-0.4,1.1-0.8S296,497.1,295.8,496.7L295.8,496.7z"></path>
		</g>
	</g>
	<g>
		<g>
			<path class="st1 YBBlGXWz_90" d="M312.8,458.3c-3.4-0.1-6.8,0.4-10.1,1.3c-0.9,0.3-1.6,1.3-1.3,2.3c0.3,0.9,1.3,1.6,2.3,1.3
				c0.8-0.2,1.5-0.4,2.3-0.6c0.4-0.1,0.8-0.2,1.2-0.2c0.2,0,0.4-0.1,0.6-0.1c0.1,0,0.6-0.1,0.2,0c1.6-0.2,3.2-0.3,4.8-0.2
				c1,0,1.9-0.9,1.8-1.8C314.6,459.2,313.8,458.4,312.8,458.3L312.8,458.3z"></path>
		</g>
	</g>
	<g>
		<g>
			<path class="st1 YBBlGXWz_91" d="M293,434.1c-0.5,0.9-1.1,1.8-1.7,2.6c0.1-0.1,0.2-0.3,0.3-0.4c-0.8,1-1.6,1.9-2.5,2.8
				c-0.7,0.7-0.7,1.9,0,2.6c0.8,0.7,1.9,0.7,2.6,0c1.8-1.7,3.3-3.6,4.5-5.7c0.5-0.8,0.2-2.1-0.7-2.5
				C294.6,433,293.5,433.2,293,434.1L293,434.1z"></path>
		</g>
	</g>
	<g>
		<g>
			<path class="st1 YBBlGXWz_92" d="M274.7,455.5c-3.3-0.8-6.9-0.1-9.6,1.9c-3.1,2.3-4.8,5.7-4.8,9.5c0,2.1,0.5,4.2,1.1,6.1
				c0.6,1.8,1.3,3.9,2.7,5.2c0.7,0.7,1.6,1.1,2.5,1.3c0.8,0.1,1.7,0,2.5,0.3c1.8,0.7,3,2.2,5,2.6c3.9,0.7,7.7-1.4,10.3-4.2
				c2.6-2.8,4.3-6.7,3.7-10.6c-1.1-7.4-9.3-11.9-16.3-11.3c-4.2,0.4-8.1,2.4-10.3,6c-2,3.4-2.3,7.8-0.2,11.3c1.2,2,4.4,0.2,3.2-1.9
				c-1.3-2.1-1.2-4.7-0.2-6.8c1.2-2.5,3.4-4,6-4.7c5.1-1.2,11.6,1.1,13.6,6.2c2.1,5-2.4,11.5-7.5,12.3c-1.4,0.2-2.5-0.3-3.7-1.1
				c-1.3-0.9-2.5-1.6-4.1-1.8c-0.6-0.1-1.4,0.1-1.9-0.2c-0.4-0.3-0.7-1-0.9-1.5c-0.7-1.5-1.3-3.1-1.6-4.7c-0.7-3.1-0.3-6.4,2.2-8.7
				c1.9-1.8,4.7-2.6,7.3-2C276,459.6,277,456.1,274.7,455.5L274.7,455.5z"></path>
		</g>
	</g>
	<g>
		<g>
			<path class="st1 YBBlGXWz_93" d="M302.2,463c-0.7,4.8-0.7,9.6-1,14.4c-0.1,1,0.9,1.8,1.8,1.8c1,0,1.8-0.8,1.8-1.8c0.3-4.5,0.3-9,0.9-13.4
				c0.1-1-0.2-2-1.3-2.3C303.6,461.4,302.3,462,302.2,463L302.2,463z"></path>
		</g>
	</g>
	<g>
		<g>
			<path class="st1 YBBlGXWz_94" d="M414,487.7c-7.3,0.7-14.5-0.5-21.7-1.9c-7.2-1.4-14.5-2.8-21.7-4.2c-14.4-2.6-28.8-5-43.3-7.2
				c-8-1.2-16.1-2.3-24.2-3.4c-2.3-0.3-2.3,3.4,0,3.7c29.1,3.8,58,8.6,86.8,14.4c7.9,1.6,16,3.1,24.1,2.3
				C416.3,491.2,416.3,487.5,414,487.7L414,487.7z"></path>
		</g>
	</g>
	<g>
		<g>
			<path class="st1 YBBlGXWz_95" d="M394.4,536c-25.1-12.7-49.5-26.7-73-42c-6.7-4.3-13.3-8.8-19.9-13.3c-2-1.4-3.8,1.8-1.9,3.2
				c23.1,15.9,47.1,30.7,71.8,44.1c7,3.8,14.1,7.5,21.2,11.1C394.6,540.3,396.5,537.1,394.4,536L394.4,536z"></path>
		</g>
	</g>
	<g>
		<g>
			<path class="st1 YBBlGXWz_96" d="M302.6,469.9c-0.3,5.9-2.4,11.8-6.1,16.4c-0.6,0.8-0.8,1.8,0,2.6c0.6,0.6,2,0.8,2.6,0c4.4-5.4,6.9-12,7.2-19
				C306.4,467.5,302.7,467.5,302.6,469.9L302.6,469.9z"></path>
		</g>
	</g>
</g>
<style data-made-with="vivus-instant">.YBBlGXWz_0{stroke-dasharray:114 116;stroke-dashoffset:115;animation:YBBlGXWz_draw 3000ms ease-in-out 0ms forwards;}.YBBlGXWz_1{stroke-dasharray:303 305;stroke-dashoffset:304;animation:YBBlGXWz_draw 3000ms ease-in-out 15ms forwards;}.YBBlGXWz_2{stroke-dasharray:223 225;stroke-dashoffset:224;animation:YBBlGXWz_draw 3000ms ease-in-out 31ms forwards;}.YBBlGXWz_3{stroke-dasharray:85 87;stroke-dashoffset:86;animation:YBBlGXWz_draw 3000ms ease-in-out 46ms forwards;}.YBBlGXWz_4{stroke-dasharray:84 86;stroke-dashoffset:85;animation:YBBlGXWz_draw 3000ms ease-in-out 62ms forwards;}.YBBlGXWz_5{stroke-dasharray:103 105;stroke-dashoffset:104;animation:YBBlGXWz_draw 3000ms ease-in-out 78ms forwards;}.YBBlGXWz_6{stroke-dasharray:19 21;stroke-dashoffset:20;animation:YBBlGXWz_draw 3000ms ease-in-out 93ms forwards;}.YBBlGXWz_7{stroke-dasharray:99 101;stroke-dashoffset:100;animation:YBBlGXWz_draw 3000ms ease-in-out 109ms forwards;}.YBBlGXWz_8{stroke-dasharray:117 119;stroke-dashoffset:118;animation:YBBlGXWz_draw 3000ms ease-in-out 125ms forwards;}.YBBlGXWz_9{stroke-dasharray:86 88;stroke-dashoffset:87;animation:YBBlGXWz_draw 3000ms ease-in-out 140ms forwards;}.YBBlGXWz_10{stroke-dasharray:105 107;stroke-dashoffset:106;animation:YBBlGXWz_draw 3000ms ease-in-out 156ms forwards;}.YBBlGXWz_11{stroke-dasharray:280 282;stroke-dashoffset:281;animation:YBBlGXWz_draw 3000ms ease-in-out 171ms forwards;}.YBBlGXWz_12{stroke-dasharray:6 8;stroke-dashoffset:7;animation:YBBlGXWz_draw 3000ms ease-in-out 187ms forwards;}.YBBlGXWz_13{stroke-dasharray:241 243;stroke-dashoffset:242;animation:YBBlGXWz_draw 3000ms ease-in-out 203ms forwards;}.YBBlGXWz_14{stroke-dasharray:241 243;stroke-dashoffset:242;animation:YBBlGXWz_draw 3000ms ease-in-out 218ms forwards;}.YBBlGXWz_15{stroke-dasharray:201 203;stroke-dashoffset:202;animation:YBBlGXWz_draw 3000ms ease-in-out 234ms forwards;}.YBBlGXWz_16{stroke-dasharray:360 362;stroke-dashoffset:361;animation:YBBlGXWz_draw 3000ms ease-in-out 250ms forwards;}.YBBlGXWz_17{stroke-dasharray:29 31;stroke-dashoffset:30;animation:YBBlGXWz_draw 3000ms ease-in-out 265ms forwards;}.YBBlGXWz_18{stroke-dasharray:42 44;stroke-dashoffset:43;animation:YBBlGXWz_draw 3000ms ease-in-out 281ms forwards;}.YBBlGXWz_19{stroke-dasharray:803 805;stroke-dashoffset:804;animation:YBBlGXWz_draw 3000ms ease-in-out 296ms forwards;}.YBBlGXWz_20{stroke-dasharray:617 619;stroke-dashoffset:618;animation:YBBlGXWz_draw 3000ms ease-in-out 312ms forwards;}.YBBlGXWz_21{stroke-dasharray:262 264;stroke-dashoffset:263;animation:YBBlGXWz_draw 3000ms ease-in-out 328ms forwards;}.YBBlGXWz_22{stroke-dasharray:22 24;stroke-dashoffset:23;animation:YBBlGXWz_draw 3000ms ease-in-out 343ms forwards;}.YBBlGXWz_23{stroke-dasharray:73 75;stroke-dashoffset:74;animation:YBBlGXWz_draw 3000ms ease-in-out 359ms forwards;}.YBBlGXWz_24{stroke-dasharray:257 259;stroke-dashoffset:258;animation:YBBlGXWz_draw 3000ms ease-in-out 375ms forwards;}.YBBlGXWz_25{stroke-dasharray:242 244;stroke-dashoffset:243;animation:YBBlGXWz_draw 3000ms ease-in-out 390ms forwards;}.YBBlGXWz_26{stroke-dasharray:45 47;stroke-dashoffset:46;animation:YBBlGXWz_draw 3000ms ease-in-out 406ms forwards;}.YBBlGXWz_27{stroke-dasharray:411 413;stroke-dashoffset:412;animation:YBBlGXWz_draw 3000ms ease-in-out 421ms forwards;}.YBBlGXWz_28{stroke-dasharray:51 53;stroke-dashoffset:52;animation:YBBlGXWz_draw 3000ms ease-in-out 437ms forwards;}.YBBlGXWz_29{stroke-dasharray:495 497;stroke-dashoffset:496;animation:YBBlGXWz_draw 3000ms ease-in-out 453ms forwards;}.YBBlGXWz_30{stroke-dasharray:54 56;stroke-dashoffset:55;animation:YBBlGXWz_draw 3000ms ease-in-out 468ms forwards;}.YBBlGXWz_31{stroke-dasharray:12 14;stroke-dashoffset:13;animation:YBBlGXWz_draw 3000ms ease-in-out 484ms forwards;}.YBBlGXWz_32{stroke-dasharray:55 57;stroke-dashoffset:56;animation:YBBlGXWz_draw 3000ms ease-in-out 500ms forwards;}.YBBlGXWz_33{stroke-dasharray:380 382;stroke-dashoffset:381;animation:YBBlGXWz_draw 3000ms ease-in-out 515ms forwards;}.YBBlGXWz_34{stroke-dasharray:196 198;stroke-dashoffset:197;animation:YBBlGXWz_draw 3000ms ease-in-out 531ms forwards;}.YBBlGXWz_35{stroke-dasharray:63 65;stroke-dashoffset:64;animation:YBBlGXWz_draw 3000ms ease-in-out 546ms forwards;}.YBBlGXWz_36{stroke-dasharray:39 41;stroke-dashoffset:40;animation:YBBlGXWz_draw 3000ms ease-in-out 562ms forwards;}.YBBlGXWz_37{stroke-dasharray:295 297;stroke-dashoffset:296;animation:YBBlGXWz_draw 3000ms ease-in-out 578ms forwards;}.YBBlGXWz_38{stroke-dasharray:25 27;stroke-dashoffset:26;animation:YBBlGXWz_draw 3000ms ease-in-out 593ms forwards;}.YBBlGXWz_39{stroke-dasharray:325 327;stroke-dashoffset:326;animation:YBBlGXWz_draw 3000ms ease-in-out 609ms forwards;}.YBBlGXWz_40{stroke-dasharray:304 306;stroke-dashoffset:305;animation:YBBlGXWz_draw 3000ms ease-in-out 625ms forwards;}.YBBlGXWz_41{stroke-dasharray:303 305;stroke-dashoffset:304;animation:YBBlGXWz_draw 3000ms ease-in-out 640ms forwards;}.YBBlGXWz_42{stroke-dasharray:65 67;stroke-dashoffset:66;animation:YBBlGXWz_draw 3000ms ease-in-out 656ms forwards;}.YBBlGXWz_43{stroke-dasharray:647 649;stroke-dashoffset:648;animation:YBBlGXWz_draw 3000ms ease-in-out 671ms forwards;}.YBBlGXWz_44{stroke-dasharray:650 652;stroke-dashoffset:651;animation:YBBlGXWz_draw 3000ms ease-in-out 687ms forwards;}.YBBlGXWz_45{stroke-dasharray:146 148;stroke-dashoffset:147;animation:YBBlGXWz_draw 3000ms ease-in-out 703ms forwards;}.YBBlGXWz_46{stroke-dasharray:173 175;stroke-dashoffset:174;animation:YBBlGXWz_draw 3000ms ease-in-out 718ms forwards;}.YBBlGXWz_47{stroke-dasharray:85 87;stroke-dashoffset:86;animation:YBBlGXWz_draw 3000ms ease-in-out 734ms forwards;}.YBBlGXWz_48{stroke-dasharray:63 65;stroke-dashoffset:64;animation:YBBlGXWz_draw 3000ms ease-in-out 750ms forwards;}.YBBlGXWz_49{stroke-dasharray:208 210;stroke-dashoffset:209;animation:YBBlGXWz_draw 3000ms ease-in-out 765ms forwards;}.YBBlGXWz_50{stroke-dasharray:229 231;stroke-dashoffset:230;animation:YBBlGXWz_draw 3000ms ease-in-out 781ms forwards;}.YBBlGXWz_51{stroke-dasharray:197 199;stroke-dashoffset:198;animation:YBBlGXWz_draw 3000ms ease-in-out 796ms forwards;}.YBBlGXWz_52{stroke-dasharray:215 217;stroke-dashoffset:216;animation:YBBlGXWz_draw 3000ms ease-in-out 812ms forwards;}.YBBlGXWz_53{stroke-dasharray:448 450;stroke-dashoffset:449;animation:YBBlGXWz_draw 3000ms ease-in-out 828ms forwards;}.YBBlGXWz_54{stroke-dasharray:178 180;stroke-dashoffset:179;animation:YBBlGXWz_draw 3000ms ease-in-out 843ms forwards;}.YBBlGXWz_55{stroke-dasharray:132 134;stroke-dashoffset:133;animation:YBBlGXWz_draw 3000ms ease-in-out 859ms forwards;}.YBBlGXWz_56{stroke-dasharray:116 118;stroke-dashoffset:117;animation:YBBlGXWz_draw 3000ms ease-in-out 875ms forwards;}.YBBlGXWz_57{stroke-dasharray:224 226;stroke-dashoffset:225;animation:YBBlGXWz_draw 3000ms ease-in-out 890ms forwards;}.YBBlGXWz_58{stroke-dasharray:229 231;stroke-dashoffset:230;animation:YBBlGXWz_draw 3000ms ease-in-out 906ms forwards;}.YBBlGXWz_59{stroke-dasharray:229 231;stroke-dashoffset:230;animation:YBBlGXWz_draw 3000ms ease-in-out 921ms forwards;}.YBBlGXWz_60{stroke-dasharray:218 220;stroke-dashoffset:219;animation:YBBlGXWz_draw 3000ms ease-in-out 937ms forwards;}.YBBlGXWz_61{stroke-dasharray:223 225;stroke-dashoffset:224;animation:YBBlGXWz_draw 3000ms ease-in-out 953ms forwards;}.YBBlGXWz_62{stroke-dasharray:231 233;stroke-dashoffset:232;animation:YBBlGXWz_draw 3000ms ease-in-out 968ms forwards;}.YBBlGXWz_63{stroke-dasharray:227 229;stroke-dashoffset:228;animation:YBBlGXWz_draw 3000ms ease-in-out 984ms forwards;}.YBBlGXWz_64{stroke-dasharray:219 221;stroke-dashoffset:220;animation:YBBlGXWz_draw 3000ms ease-in-out 1000ms forwards;}.YBBlGXWz_65{stroke-dasharray:226 228;stroke-dashoffset:227;animation:YBBlGXWz_draw 3000ms ease-in-out 1015ms forwards;}.YBBlGXWz_66{stroke-dasharray:214 216;stroke-dashoffset:215;animation:YBBlGXWz_draw 3000ms ease-in-out 1031ms forwards;}.YBBlGXWz_67{stroke-dasharray:225 227;stroke-dashoffset:226;animation:YBBlGXWz_draw 3000ms ease-in-out 1046ms forwards;}.YBBlGXWz_68{stroke-dasharray:217 219;stroke-dashoffset:218;animation:YBBlGXWz_draw 3000ms ease-in-out 1062ms forwards;}.YBBlGXWz_69{stroke-dasharray:218 220;stroke-dashoffset:219;animation:YBBlGXWz_draw 3000ms ease-in-out 1078ms forwards;}.YBBlGXWz_70{stroke-dasharray:32 34;stroke-dashoffset:33;animation:YBBlGXWz_draw 3000ms ease-in-out 1093ms forwards;}.YBBlGXWz_71{stroke-dasharray:56 58;stroke-dashoffset:57;animation:YBBlGXWz_draw 3000ms ease-in-out 1109ms forwards;}.YBBlGXWz_72{stroke-dasharray:48 50;stroke-dashoffset:49;animation:YBBlGXWz_draw 3000ms ease-in-out 1125ms forwards;}.YBBlGXWz_73{stroke-dasharray:54 56;stroke-dashoffset:55;animation:YBBlGXWz_draw 3000ms ease-in-out 1140ms forwards;}.YBBlGXWz_74{stroke-dasharray:30 32;stroke-dashoffset:31;animation:YBBlGXWz_draw 3000ms ease-in-out 1156ms forwards;}.YBBlGXWz_75{stroke-dasharray:29 31;stroke-dashoffset:30;animation:YBBlGXWz_draw 3000ms ease-in-out 1171ms forwards;}.YBBlGXWz_76{stroke-dasharray:76 78;stroke-dashoffset:77;animation:YBBlGXWz_draw 3000ms ease-in-out 1187ms forwards;}.YBBlGXWz_77{stroke-dasharray:30 32;stroke-dashoffset:31;animation:YBBlGXWz_draw 3000ms ease-in-out 1203ms forwards;}.YBBlGXWz_78{stroke-dasharray:12 14;stroke-dashoffset:13;animation:YBBlGXWz_draw 3000ms ease-in-out 1218ms forwards;}.YBBlGXWz_79{stroke-dasharray:40 42;stroke-dashoffset:41;animation:YBBlGXWz_draw 3000ms ease-in-out 1234ms forwards;}.YBBlGXWz_80{stroke-dasharray:32 34;stroke-dashoffset:33;animation:YBBlGXWz_draw 3000ms ease-in-out 1250ms forwards;}.YBBlGXWz_81{stroke-dasharray:37 39;stroke-dashoffset:38;animation:YBBlGXWz_draw 3000ms ease-in-out 1265ms forwards;}.YBBlGXWz_82{stroke-dasharray:32 34;stroke-dashoffset:33;animation:YBBlGXWz_draw 3000ms ease-in-out 1281ms forwards;}.YBBlGXWz_83{stroke-dasharray:77 79;stroke-dashoffset:78;animation:YBBlGXWz_draw 3000ms ease-in-out 1296ms forwards;}.YBBlGXWz_84{stroke-dasharray:129 131;stroke-dashoffset:130;animation:YBBlGXWz_draw 3000ms ease-in-out 1312ms forwards;}.YBBlGXWz_85{stroke-dasharray:159 161;stroke-dashoffset:160;animation:YBBlGXWz_draw 3000ms ease-in-out 1328ms forwards;}.YBBlGXWz_86{stroke-dasharray:21 23;stroke-dashoffset:22;animation:YBBlGXWz_draw 3000ms ease-in-out 1343ms forwards;}.YBBlGXWz_87{stroke-dasharray:26 28;stroke-dashoffset:27;animation:YBBlGXWz_draw 3000ms ease-in-out 1359ms forwards;}.YBBlGXWz_88{stroke-dasharray:26 28;stroke-dashoffset:27;animation:YBBlGXWz_draw 3000ms ease-in-out 1375ms forwards;}.YBBlGXWz_89{stroke-dasharray:18 20;stroke-dashoffset:19;animation:YBBlGXWz_draw 3000ms ease-in-out 1390ms forwards;}.YBBlGXWz_90{stroke-dasharray:32 34;stroke-dashoffset:33;animation:YBBlGXWz_draw 3000ms ease-in-out 1406ms forwards;}.YBBlGXWz_91{stroke-dasharray:27 29;stroke-dashoffset:28;animation:YBBlGXWz_draw 3000ms ease-in-out 1421ms forwards;}.YBBlGXWz_92{stroke-dasharray:207 209;stroke-dashoffset:208;animation:YBBlGXWz_draw 3000ms ease-in-out 1437ms forwards;}.YBBlGXWz_93{stroke-dasharray:40 42;stroke-dashoffset:41;animation:YBBlGXWz_draw 3000ms ease-in-out 1453ms forwards;}.YBBlGXWz_94{stroke-dasharray:236 238;stroke-dashoffset:237;animation:YBBlGXWz_draw 3000ms ease-in-out 1468ms forwards;}.YBBlGXWz_95{stroke-dasharray:228 230;stroke-dashoffset:229;animation:YBBlGXWz_draw 3000ms ease-in-out 1484ms forwards;}.YBBlGXWz_96{stroke-dasharray:51 53;stroke-dashoffset:52;animation:YBBlGXWz_draw 3000ms ease-in-out 1500ms forwards;}@keyframes YBBlGXWz_draw{100%{stroke-dashoffset:0;}}@keyframes YBBlGXWz_fade{0%{stroke-opacity:1;}90.21739130434783%{stroke-opacity:1;}100%{stroke-opacity:0;}}</style></svg>
